<svg id="Layer_3" data-name="Layer 3" xmlns="http://www.w3.org/2000/svg" viewBox="0 0 600 600"><defs><style>.cls-1{fill:"currentColor";}</style></defs><title>Artboard 8</title><path class="cls-1" d="M189.11,406.14c18.62,0,24.7-9.3,24.7-113.31,0-13.15.66-67.75.66-67.75S235,220.84,235,277.2s-5.6,106.48-5.6,150.85,12.65,98.59,70.61,98.59c45,0,61.51-32.8,69-61.45C354.92,485.32,329.61,491,311.24,491c-27.63,0-39.65-25.53-39.65-45.6,0-63.17,12.73-106.07,12.73-154.55,0-78.06-50.73-92-70.16-92,33.32,0,31.31-104.65,85.87-104.65,40.74,0,63.64,40.08,63.64,64.38,3.22,0,7-13.21,7-29.77C370.68,83.5,348,50.92,300,50.92c-46.5,0-60.89,32.48-71.64,63.45-7.77,22.42-12.76,41.69-12.76,41.69,0-46.58-.94-131.2,60.86-131.2,6.08,0,13.94-2.75,13.94-12.61C290.43,6.36,286,.06,279.37.06c-90.85,0-115.85,39.29-115.85,294.87C163.52,398.19,172,406.14,189.11,406.14Z"/><path class="cls-1" d="M436.48,302.7C436.48,572.92,374.36,600,299,600c-109.22,0-129.12-74.3-129.12-142.8,0-22.06,9.34-28,17.72-28,9,0,17.48-.51,21,15.62,8.29,38.48,18.2,114.39,91.44,114.39,83.26,0,95.94-93.41,95.94-146.36,0,17.28-33.45,44.3-69.94,44.3-26,0-31.25-22.67-31.25-37.56,0-62.16,16.45-92.32,16.45-182.16,0-35.26-28.07-46.76-50.56-46.76,13.64,0,16.18-49.22,48.27-49.22,37.31,0,46.74,43.37,46.74,81.3,0,63.51-13.06,94.94-13.06,144.29,0,16.91,5.17,35,16.53,35,15,0,36.78-14.18,36.78-35.6V197.2C395.93,72,380,24.54,324,24.54c-8.68,0-15.84-2.26-15.84-15.09A9.8,9.8,0,0,1,318,0C415.35,0,436.48,24.07,436.48,302.7Z"/></svg>